<?xml version="1.0" standalone="no"?>
<!DOCTYPE svg PUBLIC "-//W3C//DTD SVG 20010904//EN"
 "http://www.w3.org/TR/2001/REC-SVG-20010904/DTD/svg10.dtd">
<svg version="1.0" xmlns="http://www.w3.org/2000/svg"
 width="700.000000pt" height="700.000000pt" viewBox="0 0 700.000000 700.000000"
 preserveAspectRatio="xMidYMid meet">
<metadata>
Created by potrace 1.11, written by Peter Selinger 2001-2013
</metadata>
<g transform="translate(0.000000,700.000000) scale(0.100000,-0.100000)"
fill="#000000" stroke="none">
<path d="M2588 6125 c-2 -2 -46 -7 -98 -10 -96 -6 -114 -8 -205 -19 -71 -9
-197 -33 -268 -52 -34 -9 -70 -18 -80 -20 -10 -1 -62 -17 -115 -35 -734 -242
-1296 -746 -1591 -1424 -62 -142 -140 -379 -156 -475 -3 -19 -10 -51 -15 -70
-5 -19 -12 -57 -15 -85 -4 -27 -8 -57 -10 -65 -19 -72 -28 -576 -12 -685 4
-27 10 -68 13 -90 9 -63 44 -235 61 -295 9 -30 15 -56 15 -57 -1 -2 19 -60 44
-130 50 -144 168 -387 246 -508 364 -568 945 -983 1613 -1154 141 -36 291 -58
467 -69 140 -9 2880 -7 2938 2 121 19 171 29 240 48 41 11 80 21 85 22 6 1 48
17 95 35 435 170 804 518 1002 946 64 138 114 296 134 421 3 20 8 46 11 58 9
39 10 321 2 381 -5 33 -11 80 -15 105 -8 59 -48 207 -81 295 -44 120 -164 345
-220 415 -7 8 -35 44 -63 80 -151 191 -358 364 -576 481 -119 64 -296 133
-399 155 -161 36 -232 44 -409 48 l-129 3 -32 79 c-88 217 -225 459 -352 619
-13 17 -27 35 -31 40 -4 6 -34 41 -67 80 -315 366 -716 639 -1160 791 -158 54
-284 84 -505 118 -19 3 -102 8 -185 11 -82 4 -155 8 -162 10 -6 2 -13 2 -15 0z
m292 -600 c14 -3 43 -7 65 -10 47 -6 64 -9 125 -24 25 -7 56 -14 70 -17 14 -2
66 -18 115 -36 319 -110 561 -263 805 -508 265 -266 422 -529 531 -888 39
-128 95 -194 197 -231 43 -16 86 -19 289 -21 131 -1 252 -3 268 -5 428 -38
853 -380 1008 -810 66 -186 79 -422 31 -596 -8 -30 -16 -61 -18 -70 -7 -25
-53 -131 -83 -189 -190 -359 -569 -623 -943 -656 -54 -5 -2787 -4 -2850 1
-411 31 -819 194 -1150 460 -231 185 -411 407 -542 666 -50 101 -138 337 -152
410 -14 78 -36 200 -41 234 -20 134 -10 479 19 630 3 17 8 44 11 60 12 67 68
252 102 338 151 384 393 683 743 919 275 185 663 323 970 345 47 3 86 7 88 8
6 5 316 -4 342 -10z"/>
</g>
</svg>
